<svg width="99" height="34" viewBox="0 0 99 34" fill="none" xmlns="http://www.w3.org/2000/svg">
<path d="M4.71852 33.3988L0.333008 28.9937V22.7887H6.27468V26.5307L7.17064 27.4306H11.3204L12.2163 26.5307V6.21038H9.24551L8.25523 5.54725V0.242188H18.158V28.9937L13.7725 33.3988H4.71852ZM24.4927 33.3988L20.1072 28.9937V22.7887H26.0489V26.5307L26.9449 27.4306H31.7548L32.6507 26.5307V20.7046L31.7548 19.8046H24.4927L20.1072 15.3995V4.64728L24.4927 0.242188H34.2069L38.5924 4.64728V10.8523H32.6507V7.11035L31.7548 6.21038H26.9449L26.0489 7.11035V12.9364L26.9449 13.8364H34.2069L38.5924 18.2415V28.9937L34.2069 33.3988H24.4927ZM40.5416 33.3988V28.0938L41.5319 27.4306V6.21038L40.5416 5.54725V0.242188H48.4639V5.54725L47.4736 6.21038V27.4306H50.7745L51.4347 26.4359H56.7162V33.3988H40.5416ZM57.7223 33.3988V28.0938L58.7125 27.4306L63.0037 6.21038L62.0135 5.54725V0.242188H74.557V5.54725L73.5667 6.21038L77.8579 27.4306L78.8482 28.0938V33.3988H73.0008L71.539 26.1044H65.0315L63.5696 33.3988H57.7223ZM66.2575 20.1362H70.313L68.2852 9.99971L66.2575 20.1362ZM79.8543 33.3988V28.0938L80.8446 27.4306V6.21038L79.8543 5.54725V0.242188H94.6142L98.9997 4.64728V14.4048L96.5947 16.8205L98.9997 19.2362V28.9937L94.6142 33.3988H79.8543ZM86.7862 27.4306H92.162L93.058 26.5307V21.6993L91.1718 19.8046H86.7862V27.4306ZM86.7862 13.8364H91.1718L93.058 11.9417V7.11035L92.162 6.21038H86.7862V13.8364Z" fill="#FFFFFF"/>
</svg>
