<svg width="22" height="22" viewBox="0 0 22 22" fill="none" xmlns="http://www.w3.org/2000/svg">
<path d="M17 17V17C17.93 17 18.395 17 18.7765 16.8978C19.8117 16.6204 20.6204 15.8117 20.8978 14.7765C21 14.395 21 13.93 21 13V11.8C21 10.1198 21 9.27976 20.673 8.63803C20.3854 8.07354 19.9265 7.6146 19.362 7.32698C18.7202 7 17.8802 7 16.2 7H5.8C4.11984 7 3.27976 7 2.63803 7.32698C2.07354 7.6146 1.6146 8.07354 1.32698 8.63803C1 9.27976 1 10.1198 1 11.8V13C1 13.93 1 14.395 1.10222 14.7765C1.37962 15.8117 2.18827 16.6204 3.22354 16.8978C3.60504 17 4.07003 17 5 17V17M17 7V4.2C17 3.0799 17 2.51984 16.782 2.09202C16.5903 1.71569 16.2843 1.40973 15.908 1.21799C15.4802 1 14.9201 1 13.8 1H8.2C7.0799 1 6.51984 1 6.09202 1.21799C5.71569 1.40973 5.40973 1.71569 5.21799 2.09202C5 2.51984 5 3.07989 5 4.2V7M4 10H5M8 21H14C14.9319 21 15.3978 21 15.7654 20.8478C16.2554 20.6448 16.6448 20.2554 16.8478 19.7654C17 19.3978 17 18.9319 17 18V18C17 17.0681 17 16.6022 16.8478 16.2346C16.6448 15.7446 16.2554 15.3552 15.7654 15.1522C15.3978 15 14.9319 15 14 15H8C7.06812 15 6.60218 15 6.23463 15.1522C5.74458 15.3552 5.35523 15.7446 5.15224 16.2346C5 16.6022 5 17.0681 5 18V18C5 18.9319 5 19.3978 5.15224 19.7654C5.35523 20.2554 5.74458 20.6448 6.23463 20.8478C6.60218 21 7.06812 21 8 21Z" stroke="#14151A" stroke-width="1.5" stroke-linecap="round" stroke-linejoin="round"/>
</svg>
