<svg width="71" height="64" viewBox="0 0 71 64" fill="none" xmlns="http://www.w3.org/2000/svg">
<path fill-rule="evenodd" clip-rule="evenodd" d="M62 32C62 48.5685 48.5685 62 32 62C15.4315 62 2 48.5685 2 32C2 15.4315 15.4315 2 32 2C40.8636 2 48.8315 5.84449 54.3244 11.9586L55.828 10.6401C49.9693 4.10884 41.4645 0 32 0C14.3269 0 0 14.3269 0 32C0 49.6731 14.3269 64 32 64C49.6731 64 64 49.6731 64 32C64 28.4778 63.4309 25.0885 62.3798 21.9191L60.7375 23.3593C61.5583 26.0933 62 28.9934 62 32Z" fill="#34C759"/>
<path d="M17.6 31.9992L29.6 43.9992L69.6 7.19922" stroke="#34C759" stroke-width="2"/>
</svg>
