<svg width="32" height="37" viewBox="0 0 32 37" fill="none" xmlns="http://www.w3.org/2000/svg">
<path d="M16 0L0 9.18367V27.551L16 36.7347L31.9954 27.5538L32 27.5464V9.18367L16 0ZM16 3.53525L27.3783 10.0653L24.3008 11.8322L16 7.07005L7.70103 11.8336L4.6208 10.0653L16 3.53525ZM22.7634 14.4854V20.4819L17.5401 17.4857V11.4888L22.7634 14.4854ZM14.4599 11.4888V17.4843L9.23794 20.4814V14.4854L14.4599 11.4888ZM14.4599 32.316L3.07886 25.7841V12.7157L6.15726 14.4827V24.0158L14.4599 28.7816V32.316ZM10.7753 23.1323L15.9986 20.1343L21.2233 23.1323L16 26.1294L10.7753 23.1323ZM28.9211 25.7841L17.5401 32.316V28.7816L25.8423 24.0176V14.4827L28.9207 12.7157L28.9211 25.7841Z" fill="black"/>
</svg>
