<svg width="24" height="24" viewBox="0 0 24 24" fill="none" xmlns="http://www.w3.org/2000/svg">
<path d="M12 3.99906C11.303 3.99906 10.6132 3.73734 10.1864 3.18636L9.73424 2.60274C9.12172 1.81211 8.01933 1.59548 7.15318 2.09555L5.84684 2.84977C4.98069 3.34984 4.6171 4.41285 4.99556 5.33862L5.27481 6.02173C5.5387 6.66724 5.42168 7.39223 5.0722 7.99571V7.99571C4.72303 8.59864 4.15039 9.06946 3.46003 9.1636L2.72977 9.26318C1.7388 9.39832 1 10.2447 1 11.2448V12.7533C1 13.7534 1.7388 14.5998 2.72977 14.7349L3.46006 14.8345C4.1504 14.9287 4.72303 15.3995 5.07219 16.0024V16.0024C5.42166 16.6059 5.53867 17.3308 5.27479 17.9763L4.99554 18.6594C4.61708 19.5852 4.98067 20.6482 5.84682 21.1483L7.15316 21.9025C8.01931 22.4026 9.1217 22.1859 9.73422 21.3953L10.1863 20.8118C10.6131 20.2608 11.303 19.9991 12 19.9991V19.9991V19.9991C12.6971 19.9991 13.387 20.2608 13.8139 20.8119L14.2658 21.3951C14.8783 22.1858 15.9807 22.4024 16.8468 21.9023L18.1532 21.1481C19.0193 20.648 19.3829 19.585 19.0045 18.6592L18.7252 17.9762C18.4614 17.3307 18.5784 16.6058 18.9278 16.0024V16.0024C19.277 15.3995 19.8496 14.9287 20.5399 14.8345L21.2702 14.7349C22.2612 14.5998 23 13.7534 23 12.7533V11.2448C23 10.2447 22.2612 9.39832 21.2702 9.26319L20.5399 9.1636C19.8496 9.06946 19.277 8.59866 18.9278 7.99573V7.99573C18.5784 7.39228 18.4613 6.66732 18.7252 6.02184L19.0044 5.3388C19.3829 4.41303 19.0193 3.35001 18.1532 2.84994L16.8468 2.09572C15.9807 1.59565 14.8783 1.81228 14.2658 2.60292L13.8138 3.18628C13.3869 3.73731 12.697 3.99906 12 3.99906V3.99906V3.99906Z" stroke="#50576B" stroke-width="1.5" stroke-linecap="round" stroke-linejoin="round"/>
<path d="M15 11.999C15 13.6559 13.6569 14.999 12 14.999C10.3431 14.999 9 13.6559 9 11.999C9 10.3422 10.3431 8.99902 12 8.99902C13.6569 8.99902 15 10.3422 15 11.999Z" stroke="#50576B" stroke-width="1.5" stroke-linecap="round" stroke-linejoin="round"/>
</svg>
