<svg width="40" height="40" viewBox="0 0 40 40" fill="none" xmlns="http://www.w3.org/2000/svg">
<path fill-rule="evenodd" clip-rule="evenodd" d="M2.08301 20.0007C2.08301 10.1055 10.1046 2.08398 19.9997 2.08398C29.8948 2.08398 37.9163 10.1055 37.9163 20.0007C37.9163 29.8958 29.8948 37.9173 19.9997 37.9173C10.1046 37.9173 2.08301 29.8958 2.08301 20.0007ZM19.9997 18.334C22.7611 18.334 24.9997 16.0954 24.9997 13.334C24.9997 10.5726 22.7611 8.33398 19.9997 8.33398C17.2383 8.33398 14.9997 10.5726 14.9997 13.334C14.9997 16.0954 17.2383 18.334 19.9997 18.334ZM25.5552 30.0007C27.0894 30.0007 28.333 28.757 28.333 27.2229C28.333 24.1546 25.8457 21.6673 22.7775 21.6673H17.2219C14.1536 21.6673 11.6663 24.1546 11.6663 27.2229C11.6663 28.757 12.91 30.0007 14.4441 30.0007H25.5552Z" fill="#ABB2C2"/>
</svg>
